<svg aria-hidden="true" style="position: absolute; width: 0; height: 0; overflow: hidden;" version="1.1" xmlns="http://www.w3.org/2000/svg" xmlns:xlink="http://www.w3.org/1999/xlink">
<defs>

<symbol id="icon-cross" viewBox="0 0 32 32">
<path d="M32 3.223l-3.223-3.223-12.777 12.777-12.777-12.777-3.223 3.223 12.777 12.777-12.777 12.777 3.223 3.223 12.777-12.777 12.777 12.777 3.223-3.223-12.777-12.777 12.777-12.777z"></path>
</symbol>

<symbol id="icon-previous" viewBox="0 0 32 32">
<path  d="M23.619 2.804l-13.416 13.196 13.416 13.196-2.072 2.042-15.451-15.246 15.451-15.23 2.072 2.042z"></path>
</symbol>

<symbol id="icon-next" viewBox="0 0 32 32">
<path  d="M8.381 29.196l13.416-13.196-13.416-13.196 2.072-2.042 15.451 15.246-15.451 15.23-2.072-2.042z"></path>
</symbol>

<symbol id="icon-system-uicons_loader" viewBox="0 0 31 32">
<path  d="M15.652 5.277v2.981"></path>
<path  d="M23.106 8.258l-2.236 2.236"></path>
<path  d="M8.199 8.258l2.236 2.236"></path>
<path  d="M15.652 26.146v-2.981"></path>
<path  d="M23.106 23.165l-2.236-2.236"></path>
<path  d="M8.199 23.165l2.236-2.236"></path>
<path  d="M5.217 15.711h2.981"></path>
<path  d="M23.106 15.711h2.981"></path>
</symbol>

<symbol id="icon-clip" viewBox="0 0 35 32"><path fill="var(--color1, #cdcdcd)" d="M6.3 32c-1.489 0-2.811-.559-3.967-1.677C1.111 29.14.5 27.705.5 26.017s.611-3.124 1.833-4.307L21.5 2.033c.978-.968 2.106-1.591 3.383-1.871s2.572-.204 3.883.226 2.522 1.172 3.633 2.226c.356.366.683.769.983 1.21s.544.903.733 1.387a8.796 8.796 0 01.583 3.145c-.044 2.28-.844 4.183-2.4 5.71l-14.5 14.903c-.2.215-.444.328-.733.339s-.539-.081-.75-.274c-.211-.193-.322-.435-.333-.726s.083-.543.283-.758l14.5-14.903c1.178-1.161 1.778-2.602 1.8-4.323s-.544-3.129-1.7-4.226c-.711-.71-1.5-1.247-2.367-1.613s-1.8-.484-2.8-.355c-1 .129-1.889.57-2.667 1.323L3.864 23.13c-.822.796-1.233 1.753-1.233 2.871s.411 2.075 1.233 2.871c.378.366.789.64 1.233.823s.911.253 1.4.21c.978-.043 1.889-.484 2.733-1.323l15.233-15.677a4.621 4.621 0 00.634-.758c.111-.161.2-.333.267-.516s.111-.366.133-.548-.011-.371-.1-.565a1.821 1.821 0 00-.4-.548c-.422-.43-.833-.624-1.233-.581-.422.043-.9.312-1.433.806L10.864 22.001c-.133.129-.289.22-.467.274s-.361.059-.55.016-.35-.129-.483-.258c-.222-.193-.333-.43-.333-.71s.1-.527.3-.742L20.798 8.742c.911-.86 1.833-1.333 2.767-1.419 1.067-.086 2.044.301 2.933 1.161.844.796 1.217 1.731 1.117 2.806s-.639 2.086-1.617 3.032l-15.233 15.71c-1.244 1.204-2.633 1.85-4.167 1.936-.044 0-.094.005-.15.016s-.106.016-.15.016z"/></symbol>

</defs>
</svg>
